<svg width="15.000000" height="15.000000" viewBox="0 0 15 15" fill="none" xmlns="http://www.w3.org/2000/svg" xmlns:xlink="http://www.w3.org/1999/xlink">
	<defs/>
	<path id="linkedin" d="M1.76 2.66C0.73 2.66 -0.06 1.87 -0.06 0.88C-0.06 -0.1 0.73 -0.95 1.76 -0.95C2.74 -0.95 3.53 -0.1 3.53 0.88C3.53 1.87 2.74 2.66 1.76 2.66ZM11.81 14.05L14.94 14.05L14.94 8.57C14.94 5.9 14.33 3.79 11.2 3.79C9.7 3.79 8.67 4.63 8.25 5.43L8.21 5.43L8.21 4.07L5.26 4.07L5.26 14.05L8.35 14.05L8.35 9.13C8.35 7.82 8.58 6.55 10.22 6.55C11.81 6.55 11.81 8.05 11.81 9.18L11.81 14.05ZM3.3 14.05L0.22 14.05L0.22 4.07L3.3 4.07L3.3 14.05Z" fill="#000000" fill-opacity="1.000000" fill-rule="evenodd"/>
</svg>
