<svg width="241.000000" height="83.000000" viewBox="0 0 241 83" fill="none" xmlns="http://www.w3.org/2000/svg" xmlns:xlink="http://www.w3.org/1999/xlink">
	<desc>
			Created with Pixso.
	</desc>
	<defs/>
	<rect id="Color=Color Dark" width="241.000000" height="82.999847" fill="#FFFFFF" fill-opacity="0"/>
	<path id="Vector 2" d="M130.67 68.68C127.94 66.33 125.31 63.82 122.77 61.15C120.29 58.42 117.97 55.63 115.81 52.77C113.72 49.91 111.78 47.02 110 44.1C108.29 41.12 106.82 38.19 105.62 35.34C103.46 37.69 101.3 40.07 99.14 42.48C97.04 44.83 95.17 47.21 93.52 49.63C91.87 51.98 90.53 54.36 89.52 56.77C88.44 59.12 87.9 61.47 87.9 63.82C87.9 66.61 88.38 69.03 89.33 71.06C90.22 73.03 91.42 74.65 92.95 75.92C94.47 77.19 96.22 78.11 98.19 78.68C100.16 79.25 102.19 79.54 104.28 79.54C108.48 79.54 112.92 78.55 117.62 76.58C122.32 74.62 126.67 71.98 130.67 68.68ZM118.86 12.19C118.86 9.97 118.35 8.38 117.34 7.43C116.38 6.41 115.33 5.9 114.19 5.9C113.24 5.9 112.22 6.22 111.14 6.85C110.13 7.49 109.17 8.41 108.29 9.62C107.46 10.76 106.76 12.16 106.19 13.81C105.62 15.46 105.33 17.27 105.33 19.24C105.33 22.86 106 26.7 107.33 30.76C108.92 29.11 110.41 27.49 111.81 25.91C113.21 24.32 114.41 22.76 115.43 21.24C116.51 19.65 117.34 18.13 117.91 16.67C118.54 15.14 118.86 13.65 118.86 12.19ZM155.53 81.73C155.53 81.92 155.41 82.11 155.15 82.3C154.9 82.49 154.52 82.59 154.01 82.59C150.2 81.38 146.45 79.7 142.77 77.54C139.09 75.31 135.5 72.74 132 69.82C129.59 71.66 127.08 73.35 124.48 74.87C121.88 76.39 119.21 77.7 116.48 78.78C113.81 79.86 111.11 80.68 108.38 81.25C105.71 81.82 103.14 82.11 100.66 82.11C98.25 82.11 95.96 81.76 93.81 81.06C91.65 80.43 89.77 79.44 88.19 78.11C86.6 76.71 85.36 75 84.47 72.96C83.52 70.93 83.04 68.55 83.04 65.82C83.04 62.9 83.71 60.04 85.04 57.25C86.38 54.39 88.09 51.59 90.19 48.86C92.28 46.13 94.6 43.47 97.14 40.86C99.74 38.26 102.28 35.72 104.76 33.24C102.92 28.29 102 23.81 102 19.81C102 17.46 102.41 15.3 103.24 13.33C104.13 11.36 105.24 9.68 106.57 8.28C107.9 6.89 109.37 5.81 110.95 5.04C112.6 4.22 114.16 3.81 115.62 3.81C117.34 3.81 118.89 4.38 120.29 5.52C121.69 6.6 122.38 8.41 122.38 10.95C122.38 12.54 121.97 14.19 121.15 15.9C120.38 17.62 119.34 19.4 118 21.24C116.73 23.02 115.21 24.89 113.43 26.86C111.72 28.76 109.91 30.73 108 32.76C110.1 38.54 113.21 44.42 117.34 50.39C121.53 56.29 126.61 61.82 132.58 66.96C135.82 64.04 138.42 60.83 140.39 57.34C142.36 53.85 143.34 50.2 143.34 46.39C143.34 45.12 143.15 43.85 142.77 42.58C142.45 41.24 141.78 39.85 140.77 38.38C140.77 38.26 140.96 38.13 141.34 38C141.72 37.81 142.07 37.72 142.39 37.72C143.28 37.72 143.98 38.04 144.48 38.67C145.06 39.24 145.47 39.94 145.72 40.77C146.04 41.59 146.23 42.45 146.29 43.34C146.42 44.16 146.49 44.83 146.49 45.34C146.49 49.53 145.31 53.59 142.96 57.53C140.67 61.41 137.69 64.96 134 68.2C140.17 73.47 147.12 77.76 154.87 81.06C155.31 81.32 155.53 81.54 155.53 81.73Z" fill="#FFA55C" fill-opacity="1.000000" fill-rule="nonzero"/>
	<path id="Vector 1" d="M39.35 25.93C39.35 26.09 39.28 26.22 39.15 26.31Q38.96 26.46 38.67 26.65C37.71 27.23 36.93 28.03 36.32 29.05C35.71 30.07 35.22 31.19 34.83 32.41C34.48 33.63 34.24 34.87 34.11 36.15C33.99 37.4 33.92 38.55 33.92 39.61C33.92 40.35 33.95 41.26 34.02 42.35C34.11 43.4 34.21 44.57 34.31 45.85C34.43 47.13 34.53 48.49 34.59 49.93C34.69 51.34 34.74 52.78 34.74 54.25C34.74 56.33 34.61 58.35 34.35 60.3C34.13 62.25 33.67 63.99 32.96 65.53C32.29 67.07 31.35 68.3 30.13 69.23C28.91 70.15 27.33 70.62 25.38 70.62C24.48 70.62 23.63 70.44 22.83 70.09C22.07 69.77 21.35 69.31 20.67 68.7C20.03 68.09 19.44 67.39 18.9 66.59C18.39 65.79 17.92 64.91 17.51 63.95C17.09 65.07 16.59 66.11 16.02 67.07C15.47 68.03 14.87 68.86 14.19 69.56C13.52 70.27 12.79 70.81 11.99 71.19C11.19 71.58 10.34 71.77 9.44 71.77C8.07 71.77 6.9 71.42 5.94 70.71C5.01 70.01 4.24 69.08 3.63 67.93Q2.72 66.25 2.19 64.09Q2.12 63.75 2.05 63.42L2.05 63.41L2.05 63.41Q1.68 61.54 1.47 59.63Q1.23 57.32 1.14 55.16Q1.09 52.95 1.04 51.27Q1.01 50.27 1.01 49.3Q1.01 47.35 1.14 45.56Q1.38 42.83 1.67 40.67Q1.95 38.46 2.24 36.87C2.43 35.82 2.56 35.03 2.63 34.52C2.66 34.33 2.85 34.2 3.2 34.14C3.59 34.07 3.92 34.04 4.21 34.04C4.43 34.04 4.63 34.07 4.79 34.14C4.95 34.17 5.03 34.27 5.03 34.43C5.03 34.62 4.95 34.95 4.79 35.43C4.63 35.88 4.39 36.75 4.07 38.03C3.94 38.6 3.79 39.43 3.63 40.52C3.51 41.58 3.38 42.78 3.25 44.12Q3.11 46.14 3.01 48.44Q2.91 50.7 2.91 52.86Q2.91 54.54 3.06 56.55Q3.2 58.52 3.54 60.49C3.76 61.77 4.07 63.02 4.45 64.23C4.83 65.45 5.3 66.52 5.84 67.45Q6.71 68.84 7.86 69.66C8.63 70.23 9.52 70.52 10.55 70.52C11.31 70.52 12.02 70.33 12.66 69.95C13.3 69.56 13.89 69.02 14.43 68.31C14.98 67.64 15.46 66.84 15.87 65.91C16.32 64.99 16.72 63.98 17.07 62.89C16.34 60.87 15.79 58.73 15.44 56.46Q14.91 53.05 14.91 50.17C14.91 48.76 14.96 47.37 15.06 45.99C15.19 44.62 15.36 43.39 15.59 42.3C15.81 41.21 16.1 40.33 16.45 39.66C16.8 38.99 17.22 38.65 17.7 38.65C18.08 38.65 18.42 38.89 18.71 39.37C19.03 39.85 19.28 40.51 19.47 41.34C19.7 42.17 19.86 43.16 19.95 44.31Q20.15 45.99 20.15 47.96C20.15 50.07 20 52.3 19.71 54.63C19.43 56.94 18.98 59.19 18.37 61.4C18.79 62.52 19.27 63.56 19.81 64.52C20.35 65.45 20.96 66.27 21.63 66.97C22.34 67.67 23.11 68.22 23.94 68.6Q24.17 68.71 24.4 68.8Q25.5 69.23 26.77 69.23C28.18 69.23 29.33 68.87 30.23 68.17C31.12 67.5 31.83 66.57 32.34 65.39C32.85 64.17 33.2 62.78 33.39 61.21C33.59 59.61 33.68 57.9 33.68 56.07C33.68 54.44 33.62 52.76 33.49 51.03C33.39 49.31 33.28 47.59 33.15 45.9C33.03 44.17 32.9 42.51 32.77 40.91C32.67 39.27 32.63 37.77 32.63 36.39C32.63 35.4 32.77 34.25 33.06 32.94C33.38 31.63 33.79 30.39 34.31 29.24C34.85 28.06 35.46 27.07 36.13 26.27C36.83 25.43 37.57 25.02 38.34 25.02C38.56 25.02 38.79 25.13 39.01 25.35C39.23 25.55 39.35 25.74 39.35 25.93ZM165.8 52.86C165.8 54.43 165.35 56.12 164.46 57.95Q163.16 60.68 160.86 63.37Q158.55 66.06 155.39 68.55C153.27 70.22 151 71.69 148.57 72.97C146.14 74.25 143.58 75.26 140.89 75.99C138.2 76.76 135.51 77.15 132.83 77.15C132.38 77.15 131.88 77.13 131.34 77.1C130.83 77.07 130.35 76.99 129.9 76.86C129.45 76.76 129.07 76.59 128.75 76.33C128.43 76.11 128.27 75.79 128.27 75.37C128.27 74.79 128.55 74.23 129.13 73.69C129.71 73.18 130.44 72.7 131.34 72.25C132.23 71.8 133.21 71.4 134.27 71.05C135.32 70.7 136.33 70.39 137.29 70.14Q138.78 69.75 139.88 69.51Q140.99 69.32 141.37 69.32Q141.66 69.32 141.8 69.47C141.9 69.56 141.95 69.66 141.95 69.75C141.95 69.91 141.87 69.99 141.71 69.99L141.08 69.99C140.25 69.99 139.19 70.15 137.91 70.47C136.63 70.79 135.39 71.19 134.17 71.67C132.95 72.15 131.91 72.68 131.05 73.26C130.19 73.87 129.75 74.43 129.75 74.94C129.75 75.29 129.87 75.56 130.09 75.75C130.35 75.98 130.65 76.15 131 76.28C131.35 76.41 131.72 76.49 132.11 76.52C132.49 76.59 132.83 76.62 133.11 76.62C135.39 76.62 137.71 76.23 140.07 75.47C142.47 74.7 144.79 73.67 147.03 72.39C149.31 71.15 151.43 69.69 153.42 68.03C155.43 66.39 157.19 64.7 158.7 62.94C160.2 61.15 161.39 59.37 162.25 57.61C163.11 55.82 163.55 54.15 163.55 52.62Q163.55 51.42 163.13 50.4Q162.56 49 161.19 47.91C159.66 46.63 157.11 45.9 153.56 45.71C152.12 47.05 150.54 48.14 148.81 48.97C147.11 49.8 145.39 50.22 143.63 50.22C142.38 50.22 141.75 49.91 141.75 49.31C141.75 48.92 142.01 48.49 142.52 48.01C143.07 47.5 143.8 47.02 144.73 46.57C145.69 46.12 146.83 45.75 148.14 45.47C149.45 45.15 150.89 44.99 152.46 44.99L153.03 44.99C154.09 43.74 154.94 42.38 155.58 40.91C156.22 39.4 156.54 37.93 156.54 36.49C156.54 35.53 156.36 34.62 156.01 33.75C155.69 32.86 155.15 32.09 154.38 31.45C153.64 30.81 152.67 30.3 151.45 29.91Q149.67 29.34 147.13 29.34C145.98 29.34 144.38 29.5 142.33 29.82C140.31 30.14 138.12 30.63 135.75 31.31C133.42 31.95 131.03 32.76 128.6 33.75C126.17 34.75 123.96 35.9 121.98 37.21C119.99 38.52 118.38 40.01 117.13 41.67C115.88 43.34 115.26 45.18 115.26 47.19C115.26 47.45 115.21 47.67 115.11 47.87Q114.97 48.11 114.83 48.11C114.7 48.11 114.6 47.98 114.54 47.72C114.44 47.43 114.39 46.97 114.39 46.33Q114.54 45.27 114.88 44.28Q115.54 42.35 116.94 40.67C118.35 38.97 120.09 37.47 122.17 36.15C124.22 34.81 126.47 33.66 128.94 32.7C131.4 31.74 133.83 30.95 136.23 30.35C138.67 29.71 140.92 29.24 143 28.95Q146.17 28.47 148.19 28.47C150.14 28.47 151.79 28.67 153.13 29.05C154.51 29.4 155.63 29.9 156.49 30.54C157.35 31.15 157.98 31.88 158.36 32.75C158.75 33.61 158.94 34.52 158.94 35.48C158.94 37.05 158.51 38.68 157.64 40.38Q156.39 42.87 154.23 45.03C156.28 45.13 158.04 45.4 159.51 45.85Q161.72 46.47 163.11 47.53C164.04 48.2 164.71 49 165.13 49.93C165.58 50.83 165.8 51.8 165.8 52.86ZM90.35 59.78C90.18 60.1 89.98 60.4 89.75 60.68Q87.11 64.43 83.75 66.59C81.51 67.99 79.29 68.7 77.08 68.7C75.71 68.7 74.39 68.38 73.15 67.74C71.9 67.13 70.79 66.14 69.83 64.76C69.71 64.6 69.64 64.46 69.64 64.33C69.64 64.04 69.83 63.9 70.22 63.9C70.25 63.9 70.36 63.93 70.55 63.99C70.81 63.99 71.1 64.09 71.42 64.28C71.77 64.44 72.27 64.52 72.91 64.52C73.9 64.52 74.83 64.35 75.69 63.99C76.55 63.64 77.29 63.19 77.9 62.65C78.54 62.07 79.03 61.43 79.39 60.73C79.74 59.99 79.91 59.24 79.91 58.47C79.91 57.51 79.66 56.68 79.15 55.98C78.67 55.27 77.83 54.92 76.65 54.92C75.43 54.92 74.31 55.35 73.29 56.22C72.27 57.05 71.34 58.07 70.51 59.29C69.71 60.47 69.02 61.74 68.44 63.08Q67.58 65.05 67.15 66.54C66.99 67.08 66.84 67.42 66.71 67.55C66.59 67.67 66.44 67.74 66.28 67.74C65.96 67.74 65.8 67.46 65.8 66.89C65.8 66.84 65.8 66.79 65.8 66.73C65.8 66.44 65.82 66.09 65.85 65.67C65.88 65.26 65.91 64.81 65.95 64.33C65.95 63.85 65.96 63.37 65.99 62.89C66.03 62.38 66.04 61.91 66.04 61.5C66.04 61.08 66.04 60.64 66.03 60.18C65.93 60.35 65.82 60.51 65.71 60.68C64.08 63.11 62.43 64.92 60.77 66.11C59.1 67.29 57.55 67.88 56.11 67.88C54.29 67.88 52.89 67.02 51.93 65.29C50.81 66.41 49.55 67.26 48.14 67.83C46.77 68.41 45.41 68.7 44.06 68.7C43.26 68.7 42.49 68.59 41.76 68.36C41.05 68.14 40.45 67.8 39.93 67.35C39.39 66.87 38.96 66.28 38.64 65.58C38.32 64.84 38.16 63.99 38.16 63.03C38.16 61.88 38.43 60.71 38.97 59.53C39.49 58.31 40.21 57.23 41.13 56.27C42.09 55.27 43.21 54.46 44.49 53.82Q45.01 53.56 45.54 53.37Q47.02 52.86 48.67 52.86C49.89 52.86 50.83 53.03 51.5 53.39C52.17 53.71 52.51 54.01 52.51 54.3C52.51 54.43 52.45 54.52 52.32 54.59C52.19 54.65 52.08 54.68 51.98 54.68C51.95 54.65 51.92 54.63 51.89 54.63L51.84 54.63C51.45 54.28 51.02 54.01 50.54 53.82C50.06 53.59 49.36 53.48 48.43 53.48C47.18 53.48 46.05 53.75 45.02 54.3C44.03 54.81 43.18 55.5 42.48 56.36C41.77 57.19 41.23 58.12 40.85 59.15C40.46 60.17 40.27 61.18 40.27 62.17C40.27 64.09 40.72 65.48 41.61 66.35C42.51 67.21 43.63 67.64 44.97 67.64C46.06 67.64 47.2 67.37 48.38 66.83C49.57 66.28 50.62 65.51 51.55 64.52C51.04 63.37 50.78 61.87 50.78 60.01Q50.78 58.19 51.45 56.84C51.9 55.95 52.54 55.5 53.37 55.5C54.53 55.5 55.1 56.17 55.1 57.51C55.1 58.86 54.91 60.07 54.53 61.16C54.14 62.22 53.63 63.18 52.99 64.04C53.89 65.71 55.13 66.54 56.73 66.54C57.95 66.54 59.25 66.03 60.62 65C62.03 63.98 63.41 62.49 64.75 60.54C65.07 60.06 65.36 59.56 65.61 59.05L66 58.28C65.98 57.73 65.97 57.15 65.95 56.55Q65.85 53.72 65.71 50.75C65.61 48.73 65.53 46.73 65.47 44.75C65.4 42.76 65.37 40.94 65.37 39.27Q65.37 37.31 65.66 35.48Q65.95 33.61 66.57 32.22C66.99 31.26 67.51 30.51 68.15 29.96C68.79 29.39 69.55 29.1 70.41 29.1C71.31 29.1 72.06 29.26 72.67 29.58C73.31 29.87 73.82 30.3 74.2 30.87C74.59 31.42 74.86 32.09 75.02 32.89C75.21 33.66 75.31 34.51 75.31 35.43C75.31 37.03 75.08 38.79 74.63 40.71C74.19 42.6 73.59 44.51 72.86 46.43Q71.75 49.31 70.31 51.99Q68.92 54.63 67.43 56.6C67.5 57.56 67.53 58.55 67.53 59.58C67.56 60.6 67.61 61.69 67.67 62.84C68.47 61.11 69.35 59.63 70.31 58.38C70.73 57.83 71.19 57.31 71.71 56.79C72.25 56.25 72.81 55.77 73.39 55.35C73.99 54.94 74.63 54.6 75.31 54.35C76.01 54.09 76.75 53.96 77.51 53.96C78.73 53.96 79.79 54.27 80.68 54.87C81.58 55.48 82.03 56.46 82.03 57.8C82.03 59.08 81.71 60.17 81.07 61.07C80.46 61.96 79.69 62.71 78.76 63.32C77.83 63.9 76.84 64.33 75.79 64.62C74.73 64.91 73.77 65.08 72.91 65.15C72.84 65.15 72.81 65.16 72.81 65.19C72.81 65.26 72.86 65.35 72.95 65.48Q73.91 66.59 75.11 67.07Q75.69 67.3 76.29 67.42L76.29 67.42L76.29 67.42Q76.94 67.55 77.61 67.55C78.67 67.55 79.74 67.35 80.83 66.97Q81.13 66.85 81.44 66.72Q82.74 66.16 83.95 65.39C84.94 64.71 85.85 63.96 86.68 63.13C87.55 62.27 88.25 61.4 88.79 60.54C89.11 60.06 89.4 59.56 89.66 59.05L90.43 57.51L90.44 57.52C90.51 57.04 90.62 56.55 90.76 56.07C91.05 55.11 91.43 54.25 91.91 53.48C92.42 52.71 93 52.09 93.64 51.61C94.31 51.13 95.02 50.89 95.75 50.89C96.94 50.89 97.8 51.24 98.34 51.95C98.89 52.62 99.16 53.48 99.16 54.54C99.16 55.98 98.71 57.55 97.82 59.24C96.95 60.91 95.7 62.46 94.07 63.9Q94.86 64.79 95.86 65.3Q97.15 65.96 98.78 65.96C100.22 65.96 101.72 65.53 103.29 64.67Q105.64 63.32 107.7 60.54C108.06 60.09 108.34 59.61 108.57 59.1C108.82 58.55 109.08 58.03 109.34 57.51L110.25 57.75C110.03 58.23 109.79 58.73 109.53 59.24Q109.19 59.96 108.67 60.68C107.1 62.92 105.3 64.62 103.29 65.77C101.3 66.89 99.4 67.45 97.58 67.45C96.55 67.45 95.59 67.27 94.7 66.92C93.83 66.57 93.08 66.04 92.44 65.34C91.8 64.63 91.29 63.75 90.9 62.7C90.6 61.85 90.41 60.88 90.35 59.78ZM220.48 59.78C220.3 60.1 220.1 60.4 219.88 60.68Q217.24 64.43 213.88 66.59C211.64 67.99 209.42 68.7 207.21 68.7C205.83 68.7 204.52 68.38 203.27 67.74Q201.4 66.83 199.96 64.76C199.83 64.6 199.77 64.46 199.77 64.33C199.77 64.04 199.96 63.9 200.34 63.9C200.38 63.9 200.49 63.93 200.68 63.99C200.94 63.99 201.22 64.09 201.54 64.28C201.9 64.44 202.39 64.52 203.03 64.52C204.02 64.52 204.95 64.35 205.82 63.99C206.68 63.64 207.42 63.19 208.02 62.65C208.66 62.07 209.16 61.43 209.51 60.73C209.86 59.99 210.04 59.24 210.04 58.47Q210.04 57.39 209.61 56.53Q209.46 56.24 209.27 55.98C208.79 55.27 207.96 54.92 206.78 54.92C205.56 54.92 204.44 55.35 203.42 56.22C202.39 57.05 201.46 58.07 200.63 59.29Q199.43 61.07 198.57 63.08C197.99 64.39 197.56 65.55 197.27 66.54C197.11 67.08 196.97 67.42 196.84 67.55C196.71 67.67 196.57 67.74 196.41 67.74C196.08 67.74 195.92 67.46 195.92 66.89C195.92 66.84 195.92 66.79 195.93 66.73C195.93 66.44 195.94 66.09 195.98 65.67C196.01 65.26 196.04 64.81 196.07 64.33C196.07 63.85 196.09 63.37 196.12 62.89C196.15 62.38 196.17 61.91 196.17 61.5C196.17 61.08 196.16 60.64 196.16 60.18C196.06 60.35 195.95 60.51 195.84 60.68C194.2 63.11 192.56 64.92 190.89 66.11C189.23 67.29 187.68 67.88 186.24 67.88C184.41 67.88 183.02 67.02 182.06 65.29C180.94 66.41 179.68 67.26 178.27 67.83C176.89 68.41 175.53 68.7 174.19 68.7C173.39 68.7 172.62 68.59 171.88 68.36C171.18 68.14 170.57 67.8 170.06 67.35C169.52 66.87 169.08 66.28 168.76 65.58C168.44 64.84 168.28 63.99 168.28 63.03C168.28 61.88 168.56 60.71 169.1 59.53C169.61 58.31 170.33 57.23 171.26 56.27C172.22 55.27 173.34 54.46 174.62 53.82C175.9 53.18 177.29 52.86 178.8 52.86C180.01 52.86 180.96 53.03 181.63 53.39C182.3 53.71 182.64 54.01 182.64 54.3C182.64 54.43 182.57 54.52 182.44 54.59C182.32 54.65 182.2 54.68 182.11 54.68Q182.06 54.63 182.01 54.63L181.96 54.63C181.58 54.28 181.15 54.01 180.67 53.82C180.19 53.59 179.48 53.48 178.56 53.48Q177.04 53.48 175.75 54.01L175.75 54.01Q175.44 54.14 175.15 54.3C174.16 54.81 173.31 55.5 172.6 56.36C171.9 57.19 171.36 58.12 170.97 59.15C170.59 60.17 170.4 61.18 170.4 62.17C170.4 64.09 170.84 65.48 171.74 66.35C172.64 67.21 173.76 67.64 175.1 67.64C176.19 67.64 177.32 67.37 178.51 66.83C179.69 66.28 180.75 65.51 181.68 64.52Q180.91 62.79 180.91 60.01Q180.91 58.19 181.58 56.84Q182.03 55.95 182.73 55.65Q183.08 55.5 183.5 55.5C184.65 55.5 185.23 56.17 185.23 57.51C185.23 58.86 185.04 60.07 184.65 61.16C184.27 62.22 183.76 63.18 183.12 64.04Q184 65.68 185.33 66.24Q186.03 66.54 186.86 66.54C188.08 66.54 189.37 66.03 190.75 65C192.16 63.98 193.53 62.49 194.88 60.54C195.2 60.06 195.48 59.56 195.74 59.05L196.12 58.28C196.11 57.73 196.09 57.15 196.07 56.55C196.01 54.67 195.93 52.73 195.83 50.75Q195.69 47.72 195.59 44.75Q195.5 41.77 195.5 39.27C195.5 37.96 195.59 36.7 195.78 35.48Q196.07 33.61 196.7 32.22C197.11 31.26 197.64 30.51 198.28 29.96C198.92 29.39 199.67 29.1 200.54 29.1Q201.88 29.1 202.79 29.58C203.43 29.87 203.94 30.3 204.33 30.87C204.71 31.42 204.98 32.09 205.14 32.89C205.34 33.66 205.43 34.51 205.43 35.43Q205.43 37.83 204.76 40.71C204.31 42.6 203.72 44.51 202.98 46.43C202.25 48.35 201.4 50.2 200.44 51.99C199.51 53.75 198.55 55.29 197.56 56.6Q197.66 58.04 197.66 59.58C197.69 60.6 197.74 61.69 197.8 62.84C198.6 61.11 199.48 59.63 200.44 58.38C200.86 57.83 201.32 57.31 201.83 56.79C202.38 56.25 202.94 55.77 203.51 55.35C204.12 54.94 204.76 54.6 205.43 54.35C206.14 54.09 206.87 53.96 207.64 53.96C208.86 53.96 209.91 54.27 210.81 54.87C211.7 55.48 212.15 56.46 212.15 57.8C212.15 59.08 211.83 60.17 211.19 61.07C210.58 61.96 209.82 62.71 208.89 63.32C207.96 63.9 206.97 64.33 205.91 64.62C204.86 64.91 203.9 65.08 203.03 65.15C202.97 65.15 202.94 65.16 202.94 65.19C202.94 65.26 202.98 65.35 203.08 65.48C203.72 66.22 204.44 66.75 205.24 67.07Q205.82 67.3 206.42 67.42Q207.06 67.55 207.74 67.55C208.79 67.55 209.86 67.35 210.95 66.97C212.04 66.55 213.08 66.03 214.07 65.39C215.06 64.71 215.98 63.96 216.81 63.13C217.67 62.27 218.38 61.4 218.92 60.54C219.24 60.06 219.53 59.56 219.78 59.05L220.55 57.51L220.56 57.52C220.63 57.04 220.74 56.55 220.89 56.07C221.17 55.11 221.56 54.25 222.04 53.48Q222.81 52.33 223.77 51.61C224.44 51.13 225.14 50.89 225.88 50.89Q227.36 50.89 228.18 51.63Q228.34 51.77 228.47 51.95C229.01 52.62 229.29 53.48 229.29 54.54Q229.29 56.7 227.94 59.24C227.08 60.91 225.83 62.46 224.2 63.9C225.41 65.27 226.98 65.96 228.9 65.96C230.34 65.96 231.85 65.53 233.41 64.67Q235.77 63.32 237.83 60.54C238.18 60.09 238.47 59.61 238.69 59.1C238.95 58.55 239.21 58.03 239.46 57.51L240.37 57.75C240.15 58.23 239.91 58.73 239.65 59.24C239.43 59.72 239.14 60.2 238.79 60.68C237.22 62.92 235.43 64.62 233.41 65.77C231.43 66.89 229.53 67.45 227.7 67.45C226.68 67.45 225.72 67.27 224.82 66.92C223.96 66.57 223.21 66.04 222.57 65.34C221.93 64.63 221.41 63.75 221.03 62.7Q220.57 61.43 220.48 59.78ZM73.96 36.3C73.96 34.47 73.66 33.02 73.05 31.93C72.47 30.81 71.5 30.25 70.12 30.25C69.64 30.25 69.19 30.41 68.78 30.73C68.39 31.02 68.06 31.42 67.77 31.93C67.48 32.44 67.26 33.03 67.1 33.71C66.94 34.38 66.86 35.1 66.86 35.87C66.86 37.98 66.87 39.9 66.91 41.63C66.94 43.35 66.97 44.99 67 46.52C67.07 48.06 67.13 49.55 67.19 50.99C67.26 52.43 67.32 53.9 67.39 55.4C68.31 54.15 69.18 52.73 69.98 51.13C70.78 49.5 71.47 47.83 72.04 46.14C72.65 44.41 73.11 42.7 73.43 41C73.79 39.31 73.96 37.74 73.96 36.3ZM204.09 36.3C204.09 34.47 203.78 33.02 203.18 31.93C202.6 30.81 201.62 30.25 200.25 30.25C199.77 30.25 199.32 30.41 198.9 30.73C198.52 31.02 198.18 31.42 197.9 31.93C197.61 32.44 197.38 33.03 197.22 33.71C197.06 34.38 196.98 35.1 196.98 35.87C196.98 37.98 197 39.9 197.03 41.63Q197.08 44.22 197.13 46.52C197.19 48.06 197.26 49.55 197.32 50.99C197.38 52.43 197.45 53.9 197.51 55.4C198.44 54.15 199.3 52.73 200.1 51.13C200.9 49.5 201.59 47.83 202.17 46.14C202.78 44.41 203.24 42.7 203.56 41C203.91 39.31 204.09 37.74 204.09 36.3ZM140.36 65.48C140.36 65.93 140.33 66.25 140.27 66.44C140.2 66.63 140.03 66.73 139.74 66.73C139.1 66.79 138.78 66.15 138.78 64.81C138.75 60.39 138.7 56.36 138.63 52.71C138.6 49.07 138.55 45.91 138.49 43.26Q138.44 39.23 138.39 36.87C138.36 35.31 138.35 34.41 138.35 34.19C138.35 33.93 138.43 33.75 138.59 33.66C138.75 33.56 138.94 33.48 139.16 33.42C139.42 33.42 139.61 33.5 139.74 33.66C139.9 33.82 139.98 34.01 139.98 34.23C139.98 36.79 139.99 39.43 140.03 42.15L140.12 50.22C140.19 52.91 140.23 55.55 140.27 58.14C140.33 60.73 140.36 63.18 140.36 65.48ZM19.23 47.72C19.23 45.74 19.11 44.09 18.85 42.78Q18.53 40.9 17.95 40.81Q17.92 40.81 17.89 40.81C17.63 40.81 17.39 41 17.17 41.39C16.95 41.74 16.75 42.25 16.59 42.92C16.47 43.56 16.35 44.33 16.26 45.23Q16.16 46.52 16.16 48.06C16.16 49.88 16.29 51.85 16.55 53.96C16.8 56.04 17.25 58.06 17.89 60.01C18.34 57.96 18.67 55.87 18.9 53.72C19.12 51.55 19.23 49.55 19.23 47.72ZM151.83 45.66C150.65 45.66 149.51 45.79 148.43 46.04Q146.84 46.43 145.59 46.95C144.79 47.31 144.14 47.67 143.63 48.06C143.15 48.44 142.91 48.78 142.91 49.07C142.91 49.45 143.35 49.64 144.25 49.64C145.79 49.64 147.24 49.27 148.62 48.54C150.03 47.8 151.29 46.84 152.41 45.66L151.83 45.66ZM98.1 54.78C98.1 53.91 97.88 53.21 97.43 52.67C97.02 52.09 96.33 51.8 95.37 51.8C94.86 51.8 94.39 51.96 93.98 52.28C93.56 52.6 93.21 53.03 92.92 53.58C92.63 54.09 92.41 54.7 92.25 55.4C92.09 56.11 92.01 56.84 92.01 57.61C92.01 58.83 92.14 59.91 92.39 60.87C92.68 61.8 93.08 62.62 93.59 63.32C94.26 62.78 94.87 62.15 95.42 61.45C95.96 60.75 96.42 60.01 96.81 59.24C97.22 58.47 97.54 57.71 97.77 56.94C97.99 56.17 98.1 55.45 98.1 54.78ZM228.23 54.78C228.23 53.91 228.01 53.21 227.56 52.67C227.14 52.09 226.45 51.8 225.49 51.8C224.98 51.8 224.52 51.96 224.1 52.28C223.69 52.6 223.33 53.03 223.05 53.58C222.76 54.09 222.53 54.7 222.37 55.4Q222.13 56.46 222.13 57.61C222.13 58.83 222.26 59.91 222.52 60.87C222.81 61.8 223.21 62.62 223.72 63.32C224.39 62.78 225 62.15 225.54 61.45C226.09 60.75 226.55 60.01 226.93 59.24C227.35 58.47 227.67 57.71 227.89 56.94C228.12 56.17 228.23 55.45 228.23 54.78ZM54.33 57.8C54.33 57.32 54.25 56.94 54.09 56.65C53.93 56.33 53.68 56.17 53.33 56.17C52.78 56.17 52.37 56.44 52.08 56.99C51.82 57.45 51.69 58.02 51.69 58.72C51.69 58.8 51.69 58.87 51.69 58.95Q51.84 61.5 52.61 63.23C53.15 62.49 53.57 61.66 53.85 60.73C54.17 59.8 54.33 58.83 54.33 57.8ZM184.46 57.8C184.46 57.32 184.38 56.94 184.22 56.65C184.06 56.33 183.8 56.17 183.45 56.17Q183.14 56.17 182.88 56.29Q182.47 56.48 182.2 56.99C181.94 57.45 181.82 58.02 181.82 58.72Q181.82 58.83 181.82 58.95Q181.96 61.5 182.73 63.23C183.28 62.49 183.69 61.66 183.98 60.73C184.3 59.8 184.46 58.83 184.46 57.8Z" fill="#1F1711" fill-opacity="1.000000" fill-rule="evenodd"/>
</svg>
