<svg width="144.000000" height="24.000000" viewBox="0 0 144 24" fill="none" xmlns="http://www.w3.org/2000/svg" xmlns:xlink="http://www.w3.org/1999/xlink">
	<desc>
			Created with Pixso.
	</desc>
	<defs>
		<clipPath id="clip32_201">
			<rect id="Icon" width="23.613352" height="23.613352" fill="white" fill-opacity="0"/>
		</clipPath>
	</defs>
	<g clip-path="url(#clip32_201)">
		<path id="Vector" d="M11.8 3.63L23.35 0.22L19.98 11.8L23.35 23.35L11.8 19.98L0.22 23.35L3.63 11.8L0.22 0.22L11.8 3.63Z" fill="#000000" fill-opacity="1.000000" fill-rule="nonzero"/>
	</g>
	<path id="Positivus" d="M32.08 20.33L32.08 1.96L39.38 1.96Q41.06 1.96 42.37 2.64C43.26 3.08 43.95 3.71 44.44 4.53C44.95 5.34 45.2 6.31 45.2 7.45L45.2 7.79Q45.2 9.42 44.48 10.62Q44.45 10.67 44.41 10.73C43.91 11.55 43.22 12.18 42.34 12.62Q41.03 13.27 39.38 13.27L34.92 13.27L34.92 20.33L32.08 20.33ZM78.9 5.64C78.38 5.64 77.93 5.47 77.57 5.14C77.22 4.79 77.04 4.34 77.04 3.8C77.04 3.26 77.22 2.82 77.57 2.49C77.93 2.14 78.38 1.96 78.9 1.96C79.44 1.96 79.89 2.14 80.24 2.49C80.59 2.82 80.77 3.26 80.77 3.8C80.77 4.34 80.59 4.79 80.24 5.14C79.89 5.47 79.44 5.64 78.9 5.64ZM97.63 5.64C97.11 5.64 96.66 5.47 96.29 5.14C95.94 4.79 95.77 4.34 95.77 3.8C95.77 3.26 95.94 2.82 96.29 2.49C96.66 2.14 97.11 1.96 97.63 1.96C98.17 1.96 98.62 2.14 98.97 2.49C99.32 2.82 99.5 3.26 99.5 3.8C99.5 4.34 99.32 4.79 98.97 5.14C98.62 5.47 98.17 5.64 97.63 5.64ZM89.1 20.33C88.32 20.33 87.69 20.09 87.22 19.62C86.76 19.15 86.53 18.52 86.53 17.73L86.53 9.68L82.97 9.68L82.97 7.39L86.53 7.39L86.53 3.12L89.24 3.12L89.24 7.39L93.09 7.39L93.09 9.68L89.24 9.68L89.24 17.26C89.24 17.78 89.48 18.05 89.97 18.05L92.67 18.05L92.67 20.33L89.1 20.33ZM34.92 10.7L39.09 10.7C40.08 10.7 40.88 10.44 41.48 9.91Q41.75 9.67 41.93 9.38Q42.37 8.71 42.37 7.76L42.37 7.5Q42.37 6.49 41.9 5.8Q41.72 5.54 41.48 5.32Q41.4 5.26 41.33 5.2Q40.46 4.53 39.09 4.53L34.92 4.53L34.92 10.7ZM53.67 20.7C52.38 20.7 51.22 20.43 50.21 19.91C49.21 19.37 48.42 18.6 47.85 17.6Q46.98 16.1 46.98 14.06L46.98 13.66C46.98 12.3 47.27 11.13 47.85 10.15Q48.33 9.32 48.99 8.71L48.99 8.71Q49.54 8.2 50.21 7.84C51.22 7.3 52.38 7.03 53.67 7.03C54.97 7.03 56.12 7.3 57.14 7.84C58.15 8.38 58.95 9.15 59.52 10.15C60.1 11.13 60.39 12.3 60.39 13.66L60.39 14.06C60.39 15.42 60.1 16.6 59.52 17.6Q59.09 18.36 58.48 18.94Q57.89 19.51 57.14 19.91C56.12 20.43 54.97 20.7 53.67 20.7ZM69.05 20.7C67.41 20.7 66.05 20.33 64.96 19.59C63.88 18.86 63.21 17.75 62.97 16.26L65.49 15.66C65.63 16.38 65.86 16.94 66.19 17.36C66.53 17.78 66.94 18.08 67.43 18.26C67.93 18.43 68.48 18.52 69.05 18.52Q70.34 18.52 71.02 18.02Q71.45 17.71 71.62 17.3Q71.73 17.04 71.73 16.73C71.73 16.21 71.51 15.82 71.07 15.58C70.64 15.33 69.99 15.13 69.13 14.98L68.24 14.82C67.37 14.66 66.57 14.43 65.85 14.14C65.14 13.84 64.57 13.43 64.15 12.9Q64.1 12.84 64.06 12.78Q63.52 12.02 63.52 10.88C63.52 9.66 63.97 8.71 64.88 8.05Q66.25 7.03 68.5 7.03C69.95 7.03 71.14 7.36 72.07 8.02Q72.76 8.49 73.21 9.13Q73.69 9.81 73.91 10.67L71.39 11.38C71.23 10.59 70.9 10.04 70.39 9.73C69.88 9.4 69.25 9.23 68.5 9.23C67.77 9.23 67.19 9.37 66.77 9.65Q66.45 9.85 66.29 10.14Q66.14 10.42 66.14 10.78C66.14 11.3 66.34 11.69 66.75 11.93Q67.37 12.3 68.42 12.48L69.34 12.64C70.27 12.8 71.12 13.02 71.89 13.3C72.66 13.58 73.26 13.98 73.7 14.5C74.15 15.03 74.38 15.73 74.38 16.6C74.38 17.9 73.9 18.9 72.94 19.62Q71.49 20.7 69.05 20.7ZM138.67 20.7C137.02 20.7 135.66 20.33 134.58 19.59C133.49 18.86 132.83 17.75 132.58 16.26L135.1 15.66C135.24 16.38 135.48 16.94 135.81 17.36C136.14 17.78 136.55 18.08 137.04 18.26C137.55 18.43 138.09 18.52 138.67 18.52C139.53 18.52 140.18 18.35 140.64 18.02C141.11 17.69 141.35 17.26 141.35 16.73C141.35 16.21 141.13 15.82 140.69 15.58C140.25 15.33 139.6 15.13 138.75 14.98L137.86 14.82C136.98 14.66 136.18 14.43 135.47 14.14C134.75 13.84 134.18 13.43 133.76 12.9C133.34 12.38 133.13 11.71 133.13 10.88C133.13 9.66 133.59 8.71 134.5 8.05C135.41 7.37 136.61 7.03 138.12 7.03C139.57 7.03 140.76 7.36 141.69 8.02Q142.37 8.49 142.83 9.13Q143.31 9.81 143.52 10.67L141 11.38C140.85 10.59 140.52 10.04 140.01 9.73C139.5 9.4 138.87 9.23 138.12 9.23C137.38 9.23 136.81 9.37 136.39 9.65C135.97 9.91 135.76 10.29 135.76 10.78C135.76 11.3 135.96 11.69 136.36 11.93C136.78 12.18 137.34 12.36 138.04 12.48L138.96 12.64C139.88 12.8 140.73 13.02 141.5 13.3C142.27 13.58 142.88 13.98 143.31 14.5C143.77 15.03 144 15.73 144 16.6C144 17.9 143.52 18.9 142.55 19.62C141.59 20.34 140.3 20.7 138.67 20.7ZM77.54 20.33L77.54 7.39L80.24 7.39L80.24 20.33L77.54 20.33ZM96.27 20.33L96.27 7.39L98.97 7.39L98.97 20.33L96.27 20.33ZM105.97 20.33L101.62 7.39L104.48 7.39L107.91 18.33L108.33 18.33L111.77 7.39L114.63 7.39L110.27 20.33L105.97 20.33ZM122.21 20.56C121.23 20.56 120.36 20.35 119.59 19.91C118.82 19.47 118.21 18.85 117.78 18.05C117.34 17.24 117.12 16.28 117.12 15.16L117.12 7.39L119.82 7.39L119.82 14.98C119.82 16.1 120.1 16.93 120.66 17.47C121.22 17.99 122 18.26 123 18.26C124.1 18.26 124.98 17.89 125.65 17.15C126.33 16.4 126.67 15.33 126.67 13.93L126.67 7.39L129.37 7.39L129.37 20.33L126.72 20.33L126.72 18.39L126.3 18.39C126.06 18.91 125.62 19.41 124.99 19.88C124.36 20.34 123.44 20.56 122.21 20.56ZM53.67 18.28C54.86 18.28 55.82 17.91 56.56 17.15C57.31 16.38 57.69 15.33 57.69 13.98L57.69 13.74C57.69 12.4 57.32 11.35 56.58 10.59Q56.25 10.25 55.86 10Q54.94 9.44 53.67 9.44C52.5 9.44 51.54 9.83 50.79 10.59Q50.67 10.71 50.57 10.84Q49.68 11.93 49.68 13.74L49.68 13.98C49.68 15.33 50.05 16.38 50.79 17.15C51.54 17.91 52.5 18.28 53.67 18.28Z" fill="#000000" fill-opacity="1.000000" fill-rule="evenodd"/>
</svg>
